<svg xmlns="http://www.w3.org/2000/svg" viewBox="0 0 795.19 903.73"><title>INTEGRAOBRARecurso 11</title><g id="Capa_2" data-name="Capa 2"><g id="Capa_1-2" data-name="Capa 1"><path d="M795.19,249.33a46.8,46.8,0,0,0-23.4-40.53L616.9,119.38,446.31,217.87,606.1,310.12a46.8,46.8,0,0,1,23.4,40.53V777.08l142.29-82.15a46.8,46.8,0,0,0,23.4-40.53Z" fill="#f48425"/><path d="M171.16,350.65a46.79,46.79,0,0,1,23.39-40.53L376.93,204.83l.36-.19L570.93,92.84,421,6.27a46.78,46.78,0,0,0-46.79,0L23.4,208.8A46.8,46.8,0,0,0,0,249.33v187l171.16,98.82Z" fill="#046396"/><path d="M423.73,707.06a46.8,46.8,0,0,1-46.8,0L194.55,601.76l0,0L0,489.44v165a46.8,46.8,0,0,0,23.4,40.53L374.2,897.46a46.78,46.78,0,0,0,46.79,0l162.54-93.84V614.79Z" fill="#4f5056"/><path d="M423.73,651.19l24.23-14V344.71c0-14.15-4.69-25.62-10.48-25.62H357.71c-5.79,0-10.48,11.47-10.48,25.62V634l29.7,17.15A46.8,46.8,0,0,0,423.73,651.19Z" fill="#4e5055"/></g></g></svg>